<?xml version="1.0" encoding="UTF-8" standalone="no"?>
<svg
   xmlns:dc="http://purl.org/dc/elements/1.1/"
   xmlns:cc="http://creativecommons.org/ns#"
   xmlns:rdf="http://www.w3.org/1999/02/22-rdf-syntax-ns#"
   xmlns:svg="http://www.w3.org/2000/svg"
   xmlns="http://www.w3.org/2000/svg"
   xmlns:sodipodi="http://sodipodi.sourceforge.net/DTD/sodipodi-0.dtd"
   xmlns:inkscape="http://www.inkscape.org/namespaces/inkscape"
   width="210mm"
   height="210mm"
   viewBox="0 0 210 210"
   version="1.1"
   id="svg28"
   inkscape:version="1.0.1 (3bc2e813f5, 2020-09-07)"
   sodipodi:docname="sprecord_logo.svg"
   inkscape:export-filename="C:\Users\dimka\Pictures\sprecord_logo.png"
   inkscape:export-xdpi="4.7365646"
   inkscape:export-ydpi="4.7365646">
  <defs
     id="defs22">
    <rect
       x="30.994048"
       y="56.696429"
       width="146.65476"
       height="90.33631"
       id="rect50" />
    <rect
       x="-170.08929"
       y="105.07738"
       width="75.179052"
       height="63.352278"
       id="rect44" />
  </defs>
  <sodipodi:namedview
     id="base"
     pagecolor="#ffffff"
     bordercolor="#666666"
     borderopacity="1.0"
     inkscape:pageopacity="0.0"
     inkscape:pageshadow="2"
     inkscape:zoom="0.7"
     inkscape:cx="119.42099"
     inkscape:cy="484.88234"
     inkscape:document-units="mm"
     inkscape:current-layer="layer1"
     inkscape:document-rotation="0"
     showgrid="false"
     inkscape:window-width="1920"
     inkscape:window-height="1027"
     inkscape:window-x="-8"
     inkscape:window-y="-8"
     inkscape:window-maximized="1"
     showguides="true"
     inkscape:guide-bbox="true">
    <sodipodi:guide
       position="68.035713,108.3244"
       orientation="0,-1"
       id="guide67" />
    <sodipodi:guide
       position="103.94345,97.741069"
       orientation="1,0"
       id="guide69" />
  </sodipodi:namedview>
  <metadata
     id="metadata25">
    <rdf:RDF>
      <cc:Work
         rdf:about="">
        <dc:format>image/svg+xml</dc:format>
        <dc:type
           rdf:resource="http://purl.org/dc/dcmitype/StillImage" />
        <dc:title></dc:title>
      </cc:Work>
    </rdf:RDF>
  </metadata>
  <g
     inkscape:label="Layer 1"
     inkscape:groupmode="layer"
     id="layer1">
    <circle
       style="fill:#ed2148;stroke-width:0.264583"
       id="path40"
       cx="103.94347"
       cy="102.05358"
       r="85.800591" />
    <g
       aria-label="Sp"
       transform="matrix(1.7673861,0,0,1.7673861,-79.801822,-72.041821)"
       id="text48"
       style="font-style:normal;font-weight:normal;font-size:50.8px;line-height:1.75;font-family:sans-serif;white-space:pre;shape-inside:url(#rect50);fill:#ffffff;fill-opacity:1;stroke:none">
      <path
         d="m 98.281348,78.475781 v 7.838281 q -3.050977,-1.364258 -5.953125,-2.058789 -2.902149,-0.694531 -5.481836,-0.694531 -3.423047,0 -5.060156,0.942578 -1.63711,0.942578 -1.63711,2.926953 0,1.488281 1.091407,2.331641 1.116211,0.818554 4.018359,1.413867 l 4.067969,0.818554 q 6.176367,1.240235 8.780859,3.770313 2.604495,2.530078 2.604495,7.193362 0,6.12675 -3.646292,9.12812 -3.621484,2.97656 -11.087695,2.97656 -3.522266,0 -7.069336,-0.66972 -3.54707,-0.66973 -7.09414,-1.98438 v -8.06152 q 3.54707,1.88516 6.846093,2.85254 3.323828,0.94258 6.39961,0.94258 3.12539,0 4.787304,-1.0418 1.661914,-1.0418 1.661914,-2.97656 0,-1.73633 -1.141015,-2.67891 -1.116211,-0.94258 -4.489649,-1.686718 l -3.695898,-0.818554 q -5.55625,-1.190625 -8.135938,-3.795117 -2.554882,-2.604492 -2.554882,-7.019727 0,-5.531445 3.571875,-8.508007 3.571875,-2.976563 10.26914,-2.976563 3.050977,0 6.275586,0.471289 3.224609,0.446484 6.672461,1.364258 z"
         style="font-style:normal;font-variant:normal;font-weight:bold;font-stretch:normal;font-family:sans-serif;-inkscape-font-specification:'sans-serif Bold';text-align:center;text-anchor:middle;fill:#ffffff"
         id="path62" />
      <path
         d="m 117.57939,110.325 v 14.58516 h -8.88007 V 86.562109 h 8.88007 v 4.067969 q 1.83555,-2.43086 4.06797,-3.571875 2.23243,-1.165821 5.13457,-1.165821 5.13457,0 8.4336,4.092774 3.29902,4.067968 3.29902,10.492384 0,6.42441 -3.29902,10.51719 -3.29903,4.06796 -8.4336,4.06796 -2.90214,0 -5.13457,-1.14101 -2.23242,-1.16582 -4.06797,-3.59668 z m 5.90352,-17.983399 q -2.85254,0 -4.39043,2.108398 -1.51309,2.083594 -1.51309,6.027541 0,3.94394 1.51309,6.05234 1.53789,2.0836 4.39043,2.0836 2.85254,0 4.34082,-2.0836 1.51309,-2.08359 1.51309,-6.05234 0,-3.968752 -1.51309,-6.052345 -1.48828,-2.083594 -4.34082,-2.083594 z"
         style="font-style:normal;font-variant:normal;font-weight:bold;font-stretch:normal;font-family:sans-serif;-inkscape-font-specification:'sans-serif Bold';text-align:center;text-anchor:middle;fill:#ffffff"
         id="path64" />
    </g>
  </g>
</svg>
